<?xml version="1.0" encoding="UTF-8"?>
<svg width="1504px" height="480px" viewBox="0 0 1504 480" version="1.1" xmlns="http://www.w3.org/2000/svg" xmlns:xlink="http://www.w3.org/1999/xlink">
    <title>grid</title>
    <defs>
        <polygon id="path-1" points="0 0 1504 0 1504 480 0 480"></polygon>
        <mask id="mask-2" maskContentUnits="userSpaceOnUse" maskUnits="objectBoundingBox" x="0" y="0" width="1504" height="480" fill="white">
            <use xlink:href="#path-1"></use>
        </mask>
    </defs>
    <g id="grid" stroke="none" stroke-width="1" fill="none" fill-rule="evenodd">
        <use id="Path-2" stroke="#21262D" mask="url(#mask-2)" stroke-width="2" stroke-dasharray="3" xlink:href="#path-1"></use>
        <line x1="0" y1="160.25" x2="565.5" y2="160.5" id="Line" stroke="#21262D" stroke-linecap="square" stroke-dasharray="1,3"></line>
        <path d="M0,160.5 L564,160.5 L564,0.4" id="Path-3" stroke="#21262D" stroke-dasharray="3"></path>
        <path d="M0,320 L564,320 L565.5,480" id="Path-4" stroke="#21262D" stroke-dasharray="3"></path>
        <path d="M1504,160.5 L940,160.5 L940,1.42108547e-14" id="Path-5" stroke="#21262D" stroke-dasharray="3"></path>
        <path d="M1504,320 L940,320 L940,480.5" id="Path-6" stroke="#21262D" stroke-dasharray="3"></path>
        <line x1="376" y1="0" x2="375.5" y2="480.5" id="Path-7" stroke="#21262D" stroke-dasharray="3"></line>
        <line x1="188" y1="0" x2="187.5" y2="480" id="Path-8" stroke="#21262D" stroke-dasharray="3"></line>
        <line x1="1316.5" y1="0" x2="1316.5" y2="480.5" id="Path-7" stroke="#21262D" stroke-dasharray="3"></line>
        <line x1="1129" y1="0" x2="1129" y2="480" id="Path-8" stroke="#21262D" stroke-dasharray="3"></line>
        <line x1="752.5" y1="0" x2="752.5" y2="480" id="Path-8" stroke="#21262D" stroke-dasharray="3"></line>
        <rect id="Rectangle" fill="#00274D" x="564" y="160" width="376" height="160"></rect>
        <g id="Group" transform="translate(692.000000, 180.000000)">
            <path d="M34.6407541,114.40115 C28.6227925,111.58678 23.1138128,107.784386 18.3832758,103.23349 C17.8443539,102.694568 16.1078277,100.958042 15.5090255,100.3293 C22.0060288,99.2813958 28.1437508,98.6825937 34.6407541,98.203552 L34.6407541,114.40115 L34.6407541,114.40115 Z M68.0239737,77.8143389 L68.0539736,58.0838082 C68.0838539,48.8023749 56.8563137,48.562854 56.6167928,56.4670424 L56.6467329,79.7604459 L56.6467329,80.8083496 C60.7485276,79.7305058 63.9521191,78.7724223 68.0239737,77.8143389 L68.0239737,77.8143389 Z M56.6467329,85.8083475 L56.6467329,91.6466685 C60.7485276,91.1975669 63.9820592,90.8981658 67.9940336,90.5688246 L68.0239737,83.5628395 C63.9521191,84.2814021 60.7185875,84.9700245 56.6467329,85.8083475 L56.6467329,85.8083475 Z M105.688629,98.9221145 C100.269469,105.269417 93.5329451,110.478996 85.9281579,114.131689 L85.9281579,97.365229 C93.1736639,97.7245102 99.910188,98.2334921 105.688629,98.9221145 L105.688629,98.9221145 Z M117.634732,76.7963752 C116.916169,79.3412844 115.000002,84.7005636 112.604793,88.7125379 C105.928158,88.6825978 96.6167762,88.8322984 85.9281579,89.3712203 L85.9281579,80.4790084 C96.6766564,78.7724223 107.365275,77.3652373 117.634732,76.7963752 L117.634732,76.7963752 Z M119.91018,56.6766231 C120,57.7844071 120,58.8921911 120,59.999975 C120,62.7544649 119.820359,65.5089548 119.461078,68.1736243 C108.71258,69.3412885 97.3353388,71.5269164 85.9281579,73.8622447 L85.9281579,46.8562679 C96.9760575,51.047883 108.8024,54.401175 119.91018,56.6766231 L119.91018,56.6766231 Z M117.365271,42.3652518 C118.203594,45.0598615 118.862276,47.8442915 119.281437,50.6886017 C106.946113,48.4131535 97.0958179,46.2275257 85.9281579,42.694593 L85.9281579,35.7784282 C96.287435,38.6227384 106.856293,40.8682465 117.365271,42.3652518 L117.365271,42.3652518 Z M60.0000249,0 C85.2095953,0 106.796413,15.5688558 115.688625,37.6047748 C113.353296,37.6047748 97.5149794,36.0179491 85.9281579,33.6227405 L85.9281579,27.1856174 L42.7545232,20.928135 L34.6407541,31.257472 L34.6407541,43.0239342 C28.7425529,57.1257247 18.2635154,75.0897891 6.64675374,87.4849935 C2.39525851,79.251464 2.49397475e-05,69.8802105 2.49397475e-05,59.999975 C-0.0298901862,26.8562763 26.8563262,0 60.0000249,0 L60.0000249,0 Z M8.83238158,91.3472674 C8.38327997,90.6586449 7.96411846,89.9700225 7.57489707,89.2215198 C19.1916587,77.7245186 29.3413551,62.6945847 34.6407541,52.6347086 L34.6407541,66.9460799 C26.9760866,76.4071538 18.2635154,84.9400844 8.83238158,91.3472674 L8.83238158,91.3472674 Z M11.2275902,94.9999605 C10.7186083,94.2813979 10.2395666,93.5628353 9.7605249,92.8742129 C20.2695026,86.6466705 28.3233914,78.9820031 34.610814,72.4550597 L34.610814,86.5867903 C26.5569251,88.9520588 18.9521378,91.6766086 11.2275902,94.9999605 L11.2275902,94.9999605 Z M14.1617207,98.8023541 C13.6227987,98.1436717 12.9341763,97.2155284 12.4551346,96.6167263 C19.8503411,94.1017573 27.2156075,92.1855904 34.6407541,90.6287048 L34.6407541,94.6107391 C27.5449486,95.7784033 20.658724,97.1556482 14.1617207,98.8023541 L14.1617207,98.8023541 Z" id="Shape" fill="#FFFFFF"></path>
            <path d="M83.2934284,115.329293 C76.1377428,118.323304 68.2634946,119.99995 60.000025,119.99995 C54.5509254,119.99995 49.2515285,119.281388 44.2515285,117.904143 L44.2515285,23.9221457 L83.2934284,29.4910057 L83.2934284,33.0838186 C81.7964231,32.7544774 79.3113942,32.2454956 77.8443289,31.8562742 C76.8263653,31.5568731 76.2275631,32.8742378 77.4551075,33.3832196 C77.4251674,33.4131598 82.2155846,34.7904047 83.3233686,35.1197459 L83.3233686,41.85627 C73.9221749,38.9820197 62.3952335,33.2933993 53.4730816,27.7245394 C52.5449382,27.1556773 51.5868548,28.5628624 52.9640997,29.2514848 C60.5988271,34.9101651 73.3233727,41.9460903 83.3533087,45.8981845 L83.3533087,57.1556648 L83.3533087,74.4011667 C80.6287589,74.9700287 77.8443289,75.5688308 75.089839,76.1975731 L75.089839,58.3832092 C75.089839,55.5987793 74.4910369,53.2035707 73.4730732,51.3173439 C71.0778647,46.9161481 65.6287651,45.2993824 61.7066111,46.0179449 C57.2455351,46.8562679 54.4012249,50.6287215 54.2814645,55.2095579 L54.2814645,80.628709 L54.0419436,96.9760076 C64.4611009,96.7963669 74.8503182,96.8861872 83.3832488,97.2155284 L83.3832488,115.329293 L83.2934284,115.329293 Z M83.2934284,89.4909807 L83.2934284,80.8981699 C80.5389386,81.3472715 77.7844487,81.7963732 75.0299588,82.2754149 L75.0299588,90.0299027 C77.8443289,89.8203219 80.5988188,89.6406813 83.2934284,89.4909807 L83.2934284,89.4909807 Z" id="Shape" fill="#C8102E" fill-rule="nonzero"></path>
            <path d="M83.2934284,115.329293 C80.2395375,116.616718 77.0658861,117.664622 73.7724743,118.443064 L53.9521233,96.9760076 C64.3712806,96.7963669 74.7604979,96.8861872 83.2934284,97.2155284 L83.2934284,115.329293 Z M83.2934284,61.6167408 L83.2934284,74.3712265 C80.5688787,74.9400886 77.7844487,75.5388907 75.0299588,76.167633 L75.0299588,58.3532691 C75.0299588,55.5688392 74.4311567,53.1736306 73.413193,51.2874038 C73.0539117,50.6287215 72.6048101,49.9999792 72.1257684,49.4909974 L83.2934284,61.6167408 Z M83.2934284,89.4909807 L83.2934284,80.8981699 C80.5389386,81.3472715 77.7844487,81.7963732 75.0299588,82.2754149 L75.0299588,90.0299027 C77.8443289,89.8203219 80.5988188,89.6406813 83.2934284,89.4909807 L83.2934284,89.4909807 Z" id="Shape" fill="#862633" fill-rule="nonzero"></path>
        </g>
    </g>
</svg>