<svg xmlns="http://www.w3.org/2000/svg" xmlns:xlink="http://www.w3.org/1999/xlink" width="1504" height="480" viewBox="0 0 1504 480"><defs><path id="a" d="M0 0h1504v480H0z"/><mask id="b" width="1504" height="480" x="0" y="0" fill="#fff" maskContentUnits="userSpaceOnUse" maskUnits="objectBoundingBox"><use xlink:href="#a"/></mask></defs><g fill="none" fill-rule="evenodd"><use xlink:href="#a" stroke="#21262D" stroke-dasharray="3" stroke-width="2" mask="url(#b)"/><path stroke="#21262D" stroke-dasharray="1,3" stroke-linecap="square" d="m0 160.25 565.5.25"/><path stroke="#21262D" stroke-dasharray="3" d="M0 160.5h564V.4M0 320h564l1.5 160M1504 160.5H940V0m564 320H940v160.5M376 0l-.5 480.5M188 0l-.5 480m1129-480v480.5M1129 0v480M752.5 0v480"/><path fill="#00274D" d="M564 160h376v160H564z"/><path fill="#FFF" d="M726.64 294.401a60.43 60.43 0 0 1-16.257-11.168 260.339 260.339 0 0 1-2.874-2.904c6.497-1.048 12.635-1.646 19.132-2.125V294.4Zm33.384-36.587.03-19.73c.03-9.282-11.198-9.521-11.437-1.617l.03 23.293v1.048c4.102-1.077 7.305-2.036 11.377-2.994Zm-11.377 7.994v5.839c4.102-.45 7.335-.749 11.347-1.078l.03-7.006c-4.072.718-7.305 1.407-11.377 2.245Zm49.042 13.114a60.409 60.409 0 0 1-19.76 15.21v-16.767c7.245.36 13.981.868 19.76 1.557Zm11.946-22.126c-.719 2.545-2.635 7.905-5.03 11.917-6.677-.03-15.988.12-26.677.658v-8.892c10.749-1.707 21.437-3.114 31.707-3.683Zm2.275-20.12c.09 1.108.09 2.216.09 3.324 0 2.754-.18 5.509-.539 8.174-10.748 1.167-22.126 3.353-33.533 5.688v-27.006c11.048 4.192 22.874 7.545 33.982 9.82Zm-2.545-14.31a55.089 55.089 0 0 1 1.916 8.323c-12.335-2.276-22.185-4.461-33.353-7.994v-6.917c10.36 2.845 20.928 5.09 31.437 6.587ZM752 180c25.21 0 46.796 15.569 55.689 37.605-2.336 0-18.174-1.587-29.76-3.982v-6.437l-43.174-6.258-8.114 10.33v11.766c-5.898 14.102-16.377 32.066-27.994 44.461C694.395 259.251 692 249.88 692 240c-.03-33.144 26.856-60 60-60Zm-51.168 91.347a24.804 24.804 0 0 1-1.257-2.125c11.617-11.497 21.766-26.527 27.066-36.587v14.311c-7.665 9.461-16.377 17.994-25.809 24.401Zm2.396 3.653c-.51-.719-.988-1.437-1.467-2.126 10.509-6.227 18.562-13.892 24.85-20.419v14.132A203.4 203.4 0 0 0 703.228 275Zm2.934 3.802c-.54-.658-1.228-1.586-1.707-2.185 7.395-2.515 14.76-4.431 22.186-5.988v3.982c-7.096 1.167-13.982 2.545-20.48 4.191Z"/><path fill="#C8102E" fill-rule="nonzero" d="M775.293 295.33A60.238 60.238 0 0 1 752 300c-5.45 0-10.748-.719-15.748-2.096v-93.982l39.041 5.569v3.593c-1.497-.33-3.982-.839-5.449-1.228-1.018-.3-1.616 1.018-.389 1.527-.03.03 4.76 1.407 5.868 1.737v6.736c-9.4-2.874-20.928-8.563-29.85-14.131-.928-.57-1.886.838-.509 1.526 7.635 5.66 20.36 12.695 30.39 16.647v28.503a457.065 457.065 0 0 0-8.264 1.797v-17.815c0-2.784-.599-5.18-1.617-7.066-2.395-4.4-7.844-6.018-11.766-5.3-4.461.84-7.306 4.612-7.426 9.193v25.419l-.24 16.347c10.42-.18 20.81-.09 29.342.24v18.113h-.09Zm0-25.839v-8.593c-2.754.45-5.509.898-8.263 1.377v7.755c2.814-.21 5.569-.39 8.263-.539Z"/><path fill="#862633" fill-rule="nonzero" d="M775.293 295.33a60.022 60.022 0 0 1-9.52 3.113l-19.82-21.467c10.418-.18 20.807-.09 29.34.24v18.113Zm0-53.713v12.754a457.066 457.066 0 0 0-8.263 1.797v-17.815c0-2.784-.599-5.18-1.617-7.066a8.854 8.854 0 0 0-1.287-1.796l11.167 12.126Zm0 27.874v-8.593c-2.754.45-5.509.898-8.263 1.377v7.755c2.814-.21 5.569-.39 8.263-.539Z"/></g></svg>